<svg width="1000" height="1000" viewBox="0 0 1000 1000" fill="none" xmlns="http://www.w3.org/2000/svg">
<path d="M925 258.4C925 255.3 922.8 251.5 920.1 249.9L503.2 11.1999C500.5 9.59991 496.1 9.69991 493.4 11.1999L78.2 252.8C75.5 254.4 73.3 258.2 73.3 261.3L75 741.6C75 744.7 77.2 748.5 79.9 750.1L496.7 988.8C499.4 990.4 503.8 990.3 506.5 988.8L921.6 747.2C924.3 745.6 926.5 741.8 926.5 738.7L925 258.4ZM802.7 649.4C802.7 652.5 802 657.5 801.2 660.6L793.8 673.7C791.6 676 787.7 679.1 785 680.8L525.6 838.1C522.9 839.7 518.4 842 515.5 843.3C515.5 843.3 511.7 844.9 507 844.9C503.1 844.9 500.8 844.1 500.8 844.1C497.9 843.1 493.1 841.1 490.3 839.8L378.4 785.6C375.6 784.2 374.4 780.8 375.8 778L394 740.5C395.4 737.7 398.8 736.5 401.6 737.9L500.5 785.8C503.3 787.2 507.8 787 510.5 785.3L744.8 643.1C747.5 641.5 749.7 637.6 749.7 634.5V365.5C749.7 362.4 747.5 358.5 744.8 356.9L511.8 219.3C509.1 217.7 504.7 217.7 502 219.3L263.3 357.1C260.6 358.7 258.4 362.5 258.4 365.6V639.9C258.4 643 260.3 647.3 262.6 649.4C262.6 649.4 310.3 692.4 333 691.5C353.6 690.7 372.5 672.4 372.5 672.4C374.7 670.2 376.6 665.9 376.6 662.8V364.4C376.6 361.3 379.2 358.7 382.3 358.7H424C427.1 358.7 429.7 361.3 429.7 364.4V672.1C429.7 675.2 429.3 680.3 428.9 683.4C428.9 683.4 428.2 688.2 425.2 692.6C423.8 694.6 391.1 742.3 335.2 744.5C292.7 746.2 251 721.6 211.2 671.6C207.5 666.9 206.4 660.7 206.4 660.7C205.9 657.6 205.4 652.6 205.4 649.4V350.3C205.4 347.2 206.1 342.2 206.9 339.2L214.7 325.8C216.9 323.6 220.9 320.5 223.6 318.9L488.9 165.6C491.6 164 496.3 162.1 499.3 161.4L515.1 161.5C518.1 162.3 522.8 164.3 525.5 165.8L784.9 319C787.6 320.6 791.6 323.7 793.7 326L801.3 339.3C802.1 342.3 802.8 347.3 802.8 350.4L802.7 649.4ZM636.2 557.1C629.4 552.7 612.7 547.2 585.8 540.4C549.7 531.3 524.6 523.4 510.7 516.7C496.7 510 486.2 500.8 478.9 489.1C471.7 477.3 468.1 464.3 468.1 450.1C468.1 437.1 471.1 425.2 477 414.1C482.9 403.1 491 393.9 501.2 386.6C508.9 380.9 519.3 376.2 532.5 372.2C545.7 368.3 559.9 366.3 575.1 366.3C597.9 366.3 617.9 369.6 635.2 376.2C652.4 382.8 665.2 391.7 673.4 402.9C681.6 414.1 688.9 442.4 688.9 442.4C689.7 445.4 687.8 448.2 684.7 448.7L647.8 453.7C644.7 454.1 641.4 452 640.4 449.1C640.4 449.1 633.6 427.9 623.1 419.5C612.6 411.1 597.8 406.9 578.6 406.9C556 406.9 539.8 410.6 530.2 418.1C520.5 425.6 515.7 434.3 515.7 444.4C515.7 450.8 517.7 456.5 521.7 461.6C525.7 466.9 532 471.3 540.6 474.7C545.5 476.5 560 480.7 584.1 487.3C618.9 496.6 643.3 504.2 657 510.2C670.8 516.1 681.6 524.8 689.4 536.1C697.2 547.4 701.2 561.5 701.2 578.2C701.2 594.6 696.4 610.1 686.8 624.6C677.2 639.1 663.4 650.3 645.3 658.3C627.2 666.2 606.8 670.2 584 670.2C546.2 670.2 517.5 662.4 497.7 646.7C477.9 631 461.6 582.3 461.6 582.3C460.6 579.3 462.3 576.5 465.4 576L503 570C506.1 569.5 509.3 571.6 510.2 574.6C510.2 574.6 518.9 603.6 531.4 614C543.9 624.4 561.4 629.6 583.8 629.6C606.4 629.6 623.2 625 634.2 615.8C645.2 606.6 650.6 595.8 650.6 583.4C650.7 572.2 645.8 563.4 636.2 557.1Z" fill="#FF4A57"/>
</svg>
