<svg width="600" height="600" viewBox="0 0 600 600" fill="none" xmlns="http://www.w3.org/2000/svg">
<path d="M525 453.751L307.499 575.626V480.001L442.5 406.876L525 453.751ZM539.999 438.751V183.751L461.25 228.751V393.751L539.999 438.751ZM73.1245 453.751L290.625 575.626V480.001L155.625 406.876L73.1245 453.751ZM58.1245 438.751V183.751L136.875 228.751V393.751L58.1245 438.751ZM67.4995 168.751L288.749 43.1257V135.001L146.25 213.751L67.4995 168.751ZM530.624 168.751L309.375 43.1257V135.001L451.875 213.751L530.624 168.751ZM290.625 457.501L157.5 384.376V240.001L290.625 316.876V457.501ZM309.375 457.501L442.5 384.376V240.001L309.375 316.876V457.501ZM165 225.001L300 151.876L433.125 225.001L300 301.876L165 225.001Z" fill="#FF4A57"/>
</svg>
