<svg width="577" height="340" viewBox="0 0 577 340" fill="none" xmlns="http://www.w3.org/2000/svg">
<g opacity="0.26">
<circle cx="68.3577" cy="36.8874" r="3.5" transform="rotate(0.50939 68.3577 36.8874)" fill="#E5E5E5" fill-opacity="0.2"/>
<circle cx="144.608" cy="121.569" r="3.5" transform="rotate(0.50939 144.608 121.569)" fill="#E5E5E5" fill-opacity="0.2"/>
<circle cx="79.2857" cy="269.994" r="3.5" transform="rotate(0.50939 79.2857 269.994)" fill="#E5E5E5" fill-opacity="0.2"/>
<circle cx="205.672" cy="227.116" r="3.5" transform="rotate(0.50939 205.672 227.116)" fill="#E5E5E5" fill-opacity="0.2"/>
<circle cx="238.728" cy="333.414" r="3.5" transform="rotate(0.50939 238.728 333.414)" fill="#E5E5E5" fill-opacity="0.2"/>
<circle cx="407.135" cy="175.905" r="3.5" transform="rotate(0.50939 407.135 175.905)" fill="#E5E5E5" fill-opacity="0.2"/>
<circle cx="572.151" cy="62.3674" r="3.5" transform="rotate(0.50939 572.151 62.3674)" fill="#E5E5E5" fill-opacity="0.2"/>
<circle cx="535.872" cy="206.051" r="3.5" transform="rotate(0.50939 535.872 206.051)" fill="#E5E5E5" fill-opacity="0.2"/>
<circle cx="520.135" cy="288.914" r="3.5" transform="rotate(0.50939 520.135 288.914)" fill="#E5E5E5" fill-opacity="0.2"/>
<circle cx="309.348" cy="39.03" r="3.5" transform="rotate(0.50939 309.348 39.03)" fill="#E5E5E5" fill-opacity="0.2"/>
<circle cx="272.025" cy="187.704" r="3.5" transform="rotate(0.50939 272.025 187.704)" fill="#E5E5E5" fill-opacity="0.2"/>
<circle cx="4.64431" cy="229.329" r="3.5" transform="rotate(0.50939 4.64431 229.329)" fill="#E5E5E5" fill-opacity="0.2"/>
<circle cx="138.293" cy="44.5095" r="3.5" transform="rotate(0.50939 138.293 44.5095)" fill="#E5E5E5" fill-opacity="0.2"/>
<circle cx="228.636" cy="6.31118" r="3.5" transform="rotate(0.50939 228.636 6.31118)" fill="#E5E5E5" fill-opacity="0.2"/>
<circle cx="240.871" cy="92.4233" r="3.5" transform="rotate(0.50939 240.871 92.4233)" fill="#E5E5E5" fill-opacity="0.2"/>
<line x1="67.9068" y1="36.8858" x2="138.842" y2="44.5168" stroke="#E5E5E5" stroke-opacity="0.2"/>
<line x1="138.296" y1="43.9642" x2="144.611" y2="121.023" stroke="#E5E5E5" stroke-opacity="0.2"/>
<line x1="144.967" y1="120.595" x2="241.23" y2="91.4493" stroke="#E5E5E5" stroke-opacity="0.2"/>
<line x1="228.636" y1="5.74205" x2="239.871" y2="91.8453" stroke="#E5E5E5" stroke-opacity="0.2"/>
<line x1="309.157" y1="38.9221" x2="239.68" y2="92.3065" stroke="#E5E5E5" stroke-opacity="0.2"/>
<line x1="229.328" y1="5.35225" x2="310.04" y2="38.0711" stroke="#E5E5E5" stroke-opacity="0.2"/>
<line x1="138.574" y1="45.5579" x2="227.935" y2="5.35077" stroke="#E5E5E5" stroke-opacity="0.2"/>
<line x1="143.71" y1="120.767" x2="228.738" y2="5.51879" stroke="#E5E5E5" stroke-opacity="0.2"/>
<line x1="145.343" y1="120.629" x2="272.76" y2="186.765" stroke="#E5E5E5" stroke-opacity="0.2"/>
<line x1="240.84" y1="92.7575" x2="273.003" y2="187.047" stroke="#E5E5E5" stroke-opacity="0.2"/>
<line x1="406.684" y1="175.898" x2="272.573" y2="187.707" stroke="#E5E5E5" stroke-opacity="0.2"/>
<line x1="309.356" y1="36.6429" x2="273.015" y2="187.326" stroke="#E5E5E5" stroke-opacity="0.2"/>
<line x1="309.269" y1="37.2364" x2="407.047" y2="175.111" stroke="#E5E5E5" stroke-opacity="0.2"/>
<line x1="67.2316" y1="36.0372" x2="144.482" y2="120.727" stroke="#E5E5E5" stroke-opacity="0.2"/>
<line x1="3.85441" y1="227.427" x2="143.809" y2="120.667" stroke="#E5E5E5" stroke-opacity="0.2"/>
<line x1="3.13205" y1="229.315" x2="206.168" y2="226.12" stroke="#E5E5E5" stroke-opacity="0.2"/>
<line x1="144.555" y1="119.816" x2="206.593" y2="228.372" stroke="#E5E5E5" stroke-opacity="0.2"/>
<line x1="272.789" y1="187.636" x2="206.428" y2="228.047" stroke="#E5E5E5" stroke-opacity="0.2"/>
<line x1="78.6218" y1="270.015" x2="206.008" y2="227.146" stroke="#E5E5E5" stroke-opacity="0.2"/>
<line x1="79.9785" y1="269.035" x2="238.412" y2="333.446" stroke="#E5E5E5" stroke-opacity="0.2"/>
<line x1="239.756" y1="333.08" x2="205.7" y2="226.773" stroke="#E5E5E5" stroke-opacity="0.2"/>
<line x1="240.89" y1="332.572" x2="407.288" y2="176.045" stroke="#E5E5E5" stroke-opacity="0.2"/>
<line x1="407.754" y1="174.922" x2="536.491" y2="205.068" stroke="#E5E5E5" stroke-opacity="0.2"/>
<line x1="407.004" y1="174.048" x2="521.004" y2="289.048" stroke="#E5E5E5" stroke-opacity="0.2"/>
<line x1="535.869" y1="205.633" x2="521.123" y2="289.505" stroke="#E5E5E5" stroke-opacity="0.2"/>
<line x1="307.907" y1="37.0188" x2="572.723" y2="61.1295" stroke="#E5E5E5" stroke-opacity="0.2"/>
<line x1="408.344" y1="176.008" x2="572.369" y2="61.4619" stroke="#E5E5E5" stroke-opacity="0.2"/>
</g>
</svg>
